# This file uses centimeters as units for non-parametric coordinates.

mtllib diamond.mtl
g default
v 2.043832 0.267499 -2.562884
v -0.729435 0.267499 -3.195865
v -2.953423 0.267499 -1.422294
v -2.953423 0.267499 1.422293
v -0.729435 0.267499 3.195865
v 2.043832 0.267499 2.562884
v 3.278052 0.267499 0.000000
v 2.890415 1.595993 -3.624465
v -1.031577 1.595993 -4.519635
v -4.176770 1.595993 -2.011427
v -4.176771 1.595993 2.011427
v -1.031577 1.595993 4.519635
v 2.890415 1.595993 3.624466
v 4.635866 1.595993 0.000000
v 2.043832 3.278052 -2.562884
v -0.729435 3.278052 -3.195865
v -2.953423 3.278052 -1.422294
v -2.953423 3.278052 1.422293
v -0.729435 3.278052 3.195865
v 2.043832 3.278052 2.562884
v 3.278052 3.278052 0.000000
v 0.000000 -4.635866 0.000000
v 0.000000 3.706516 0.000000
vt 0.000000 0.250000
vt 0.142857 0.250000
vt 0.285714 0.250000
vt 0.428571 0.250000
vt 0.571429 0.250000
vt 0.714286 0.250000
vt 0.857143 0.250000
vt 1.000000 0.250000
vt 0.000000 0.500000
vt 0.142857 0.500000
vt 0.285714 0.500000
vt 0.428571 0.500000
vt 0.571429 0.500000
vt 0.714286 0.500000
vt 0.857143 0.500000
vt 1.000000 0.500000
vt 0.000000 0.750000
vt 0.142857 0.750000
vt 0.285714 0.750000
vt 0.428571 0.750000
vt 0.571429 0.750000
vt 0.714286 0.750000
vt 0.857143 0.750000
vt 1.000000 0.750000
vt 0.071429 0.000000
vt 0.214286 0.000000
vt 0.357143 0.000000
vt 0.500000 0.000000
vt 0.642857 0.000000
vt 0.785714 0.000000
vt 0.928571 0.000000
vt 0.071429 1.000000
vt 0.214286 1.000000
vt 0.357143 1.000000
vt 0.500000 1.000000
vt 0.642857 1.000000
vt 0.785714 1.000000
vt 0.928571 1.000000
vn 0.163691 -0.677396 -0.717175
vn 0.163691 -0.677396 -0.717175
vn 0.163691 -0.677396 -0.717175
vn 0.163691 -0.677396 -0.717175
vn -0.458650 -0.677396 -0.575130
vn -0.458650 -0.677396 -0.575130
vn -0.458650 -0.677396 -0.575129
vn -0.458650 -0.677396 -0.575129
vn -0.735618 -0.677396 -0.000000
vn -0.735618 -0.677396 -0.000000
vn -0.735618 -0.677396 -0.000000
vn -0.735618 -0.677396 -0.000000
vn -0.458650 -0.677396 0.575129
vn -0.458650 -0.677396 0.575129
vn -0.458650 -0.677396 0.575129
vn -0.458650 -0.677396 0.575129
vn 0.163690 -0.677396 0.717175
vn 0.163690 -0.677396 0.717175
vn 0.163690 -0.677396 0.717175
vn 0.163690 -0.677396 0.717175
vn 0.662769 -0.677396 0.319173
vn 0.662769 -0.677396 0.319173
vn 0.662769 -0.677396 0.319173
vn 0.662769 -0.677396 0.319173
vn 0.662769 -0.677396 -0.319173
vn 0.662769 -0.677396 -0.319173
vn 0.662769 -0.677396 -0.319173
vn 0.662769 -0.677396 -0.319173
vn 0.179959 0.588182 -0.788452
vn 0.179959 0.588182 -0.788452
vn 0.179959 0.588182 -0.788452
vn 0.179959 0.588182 -0.788452
vn -0.504234 0.588182 -0.632290
vn -0.504234 0.588182 -0.632290
vn -0.504234 0.588182 -0.632290
vn -0.504234 0.588182 -0.632290
vn -0.808729 0.588182 -0.000000
vn -0.808729 0.588182 -0.000000
vn -0.808729 0.588182 -0.000000
vn -0.808729 0.588182 -0.000000
vn -0.504234 0.588182 0.632290
vn -0.504234 0.588182 0.632290
vn -0.504234 0.588182 0.632290
vn -0.504234 0.588182 0.632290
vn 0.179959 0.588182 0.788452
vn 0.179959 0.588182 0.788452
vn 0.179959 0.588182 0.788452
vn 0.179959 0.588182 0.788452
vn 0.728639 0.588182 0.350894
vn 0.728639 0.588182 0.350894
vn 0.728639 0.588182 0.350894
vn 0.728639 0.588182 0.350894
vn 0.728639 0.588182 -0.350894
vn 0.728639 0.588182 -0.350894
vn 0.728639 0.588182 -0.350894
vn 0.728639 0.588182 -0.350894
vn 0.190614 -0.515960 -0.835136
vn 0.190614 -0.515960 -0.835136
vn 0.190614 -0.515960 -0.835136
vn -0.534089 -0.515960 -0.669727
vn -0.534089 -0.515960 -0.669727
vn -0.534089 -0.515960 -0.669727
vn -0.856613 -0.515960 0.000000
vn -0.856613 -0.515960 0.000000
vn -0.856613 -0.515960 0.000000
vn -0.534089 -0.515960 0.669727
vn -0.534089 -0.515960 0.669727
vn -0.534089 -0.515960 0.669727
vn 0.190614 -0.515960 0.835136
vn 0.190614 -0.515960 0.835136
vn 0.190614 -0.515960 0.835136
vn 0.771781 -0.515960 0.371670
vn 0.771781 -0.515960 0.371670
vn 0.771781 -0.515960 0.371670
vn 0.771782 -0.515960 -0.371670
vn 0.771781 -0.515960 -0.371670
vn 0.771781 -0.515960 -0.371670
vn 0.031947 0.989640 -0.139971
vn 0.031948 0.989640 -0.139971
vn 0.031948 0.989640 -0.139971
vn -0.089515 0.989640 -0.112248
vn -0.089515 0.989640 -0.112248
vn -0.089515 0.989640 -0.112248
vn -0.143571 0.989640 0.000000
vn -0.143571 0.989640 0.000000
vn -0.143571 0.989640 0.000000
vn -0.089515 0.989640 0.112248
vn -0.089515 0.989640 0.112248
vn -0.089515 0.989640 0.112248
vn 0.031947 0.989640 0.139971
vn 0.031947 0.989640 0.139971
vn 0.031947 0.989640 0.139971
vn 0.129353 0.989640 0.062293
vn 0.129353 0.989640 0.062293
vn 0.129353 0.989640 0.062293
vn 0.129353 0.989640 -0.062293
vn 0.129353 0.989640 -0.062293
vn 0.129353 0.989640 -0.062293
s off
g pSphere1
usemtl initialShadingGroup
f 1/1/1 2/2/2 9/10/3 8/9/4
f 2/2/5 3/3/6 10/11/7 9/10/8
f 3/3/9 4/4/10 11/12/11 10/11/12
f 4/4/13 5/5/14 12/13/15 11/12/16
f 5/5/17 6/6/18 13/14/19 12/13/20
f 6/6/21 7/7/22 14/15/23 13/14/24
f 7/7/25 1/8/26 8/16/27 14/15/28
f 8/9/29 9/10/30 16/18/31 15/17/32
f 9/10/33 10/11/34 17/19/35 16/18/36
f 10/11/37 11/12/38 18/20/39 17/19/40
f 11/12/41 12/13/42 19/21/43 18/20/44
f 12/13/45 13/14/46 20/22/47 19/21/48
f 13/14/49 14/15/50 21/23/51 20/22/52
f 14/15/53 8/16/54 15/24/55 21/23/56
f 2/2/57 1/1/58 22/25/59
f 3/3/60 2/2/61 22/26/62
f 4/4/63 3/3/64 22/27/65
f 5/5/66 4/4/67 22/28/68
f 6/6/69 5/5/70 22/29/71
f 7/7/72 6/6/73 22/30/74
f 1/8/75 7/7/76 22/31/77
f 15/17/78 16/18/79 23/32/80
f 16/18/81 17/19/82 23/33/83
f 17/19/84 18/20/85 23/34/86
f 18/20/87 19/21/88 23/35/89
f 19/21/90 20/22/91 23/36/92
f 20/22/93 21/23/94 23/37/95
f 21/23/96 15/24/97 23/38/98
